<svg width="71" height="71" viewBox="0 0 71 71" fill="none" xmlns="http://www.w3.org/2000/svg">
<path d="M35.5 71C55.1061 71 71 55.1061 71 35.5C71 15.8939 55.1061 0 35.5 0C15.8939 0 0 15.8939 0 35.5C0 55.1061 15.8939 71 35.5 71Z" fill="url(#paint0_radial_171_9466)"/>
<g style="mix-blend-mode:soft-light">
<path d="M35.5 71C55.1061 71 71 55.1061 71 35.5C71 15.8939 55.1061 0 35.5 0C15.8939 0 0 15.8939 0 35.5C0 55.1061 15.8939 71 35.5 71Z" fill="url(#paint1_radial_171_9466)"/>
</g>
<g style="mix-blend-mode:soft-light">
<path d="M35.5 71C55.1061 71 71 55.1061 71 35.5C71 15.8939 55.1061 0 35.5 0C15.8939 0 0 15.8939 0 35.5C0 55.1061 15.8939 71 35.5 71Z" fill="url(#paint2_radial_171_9466)"/>
</g>
<g style="mix-blend-mode:overlay">
<path d="M35.5 71C55.1061 71 71 55.1061 71 35.5C71 15.8939 55.1061 0 35.5 0C15.8939 0 0 15.8939 0 35.5C0 55.1061 15.8939 71 35.5 71Z" fill="url(#paint3_radial_171_9466)" fill-opacity="0.7"/>
</g>
<mask id="mask0_171_9466" style="mask-type:alpha" maskUnits="userSpaceOnUse" x="0" y="0" width="71" height="71">
<path d="M35.5 71C55.1061 71 71 55.1061 71 35.5C71 15.8939 55.1061 0 35.5 0C15.8939 0 0 15.8939 0 35.5C0 55.1061 15.8939 71 35.5 71Z" fill="white"/>
</mask>
<g mask="url(#mask0_171_9466)">
<g filter="url(#filter0_f_171_9466)">
<path d="M-0.202466 34.4874C-0.163919 33.983 0.00207344 33.9325 0.0504879 34.4446C0.104277 35.0137 -0.000284165 36.1577 0.0248896 36.8477C0.0915451 38.6749 0.371633 40.2636 0.660371 41.5558C1.59084 45.7202 2.8794 48.4036 4.08125 50.6771C8.03183 58.1504 12.3594 61.9347 16.581 64.7868C22.7692 68.9674 29.0077 70.2972 35.2513 70.5793C35.4088 70.5864 35.435 71.6122 35.2801 71.7458C35.0007 71.9866 34.6546 71.7476 34.3688 71.7376C33.5475 71.7088 32.7262 71.6524 31.905 71.5671C29.4699 71.314 27.0351 70.7987 24.6051 69.9697C17.998 67.7155 10.8742 63.8556 4.65271 52.9841C4.26133 52.3002 3.87305 51.5802 3.49027 50.8064C3.18414 50.1877 2.881 49.539 2.58319 48.8453C1.60366 46.5635 -0.678978 40.7224 -0.202466 34.4874ZM35.2557 71.7568C35.1055 71.7614 35.0674 70.8051 35.2106 70.6066C35.4271 70.3065 35.7515 70.5536 35.9797 70.5394C36.9274 70.4801 37.8749 70.3922 38.8222 70.2733C41.4194 69.9471 44.0148 69.3903 46.6044 68.5327C53.0273 66.4057 59.9326 63.163 65.9874 53.2003C66.3727 52.5663 66.7547 51.8936 67.1316 51.1705C68.2769 48.9732 71.1475 43.1402 70.8156 35.889C70.7876 35.2777 70.9738 34.9116 71.0571 35.436C71.1631 36.1036 71.12 37.4956 71.0908 38.2363C70.9973 40.6083 70.633 42.6143 70.2489 44.2344C69.0316 49.3686 67.3226 52.3454 65.7576 54.831C60.6706 62.9101 55.1456 66.167 49.7742 68.5074C44.9564 70.6066 40.1019 71.6072 35.2557 71.7568Z" fill="#401C02"/>
</g>
<g filter="url(#filter1_f_171_9466)">
<path d="M-0.202466 34.4874C-0.163919 33.983 0.00207344 33.9325 0.0504879 34.4446C0.104277 35.0137 -0.000284165 36.1577 0.0248896 36.8477C0.0915451 38.6749 0.371633 40.2636 0.660371 41.5558C1.59084 45.7202 2.8794 48.4036 4.08125 50.6771C8.03183 58.1504 12.3594 61.9347 16.581 64.7868C22.7692 68.9674 29.0077 70.2972 35.2513 70.5793C35.4088 70.5864 35.435 71.6122 35.2801 71.7458C35.0007 71.9866 34.6546 71.7476 34.3688 71.7376C33.5475 71.7088 32.7262 71.6524 31.905 71.5671C29.4699 71.314 27.0351 70.7987 24.6051 69.9697C17.998 67.7155 10.8742 63.8556 4.65271 52.9841C4.26133 52.3002 3.87305 51.5802 3.49027 50.8064C3.18414 50.1877 2.881 49.539 2.58319 48.8453C1.60366 46.5635 -0.678978 40.7224 -0.202466 34.4874ZM35.2557 71.7568C35.1055 71.7614 35.0674 70.8051 35.2106 70.6066C35.4271 70.3065 35.7515 70.5536 35.9797 70.5394C36.9274 70.4801 37.8749 70.3922 38.8222 70.2733C41.4194 69.9471 44.0148 69.3903 46.6044 68.5327C53.0273 66.4057 59.9326 63.163 65.9874 53.2003C66.3727 52.5663 66.7547 51.8936 67.1316 51.1705C68.2769 48.9732 71.1475 43.1402 70.8156 35.889C70.7876 35.2777 70.9738 34.9116 71.0571 35.436C71.1631 36.1036 71.12 37.4956 71.0908 38.2363C70.9973 40.6083 70.633 42.6143 70.2489 44.2344C69.0316 49.3686 67.3226 52.3454 65.7576 54.831C60.6706 62.9101 55.1456 66.167 49.7742 68.5074C44.9564 70.6066 40.1019 71.6072 35.2557 71.7568Z" fill="#401C02"/>
</g>
</g>
<path d="M24.1736 32.3591C26.3872 32.3591 28.1817 30.1455 28.1817 27.4149C28.1817 24.6843 26.3872 22.4707 24.1736 22.4707C21.96 22.4707 20.1655 24.6843 20.1655 27.4149C20.1655 30.1455 21.96 32.3591 24.1736 32.3591Z" fill="url(#paint4_radial_171_9466)"/>
<path d="M24.1736 32.3591C26.3872 32.3591 28.1817 30.1455 28.1817 27.4149C28.1817 24.6843 26.3872 22.4707 24.1736 22.4707C21.96 22.4707 20.1655 24.6843 20.1655 27.4149C20.1655 30.1455 21.96 32.3591 24.1736 32.3591Z" stroke="url(#paint5_linear_171_9466)" stroke-width="0.294386" stroke-miterlimit="10"/>
<path d="M46.75 32.3591C48.9636 32.3591 50.7581 30.1455 50.7581 27.4149C50.7581 24.6843 48.9636 22.4707 46.75 22.4707C44.5364 22.4707 42.7419 24.6843 42.7419 27.4149C42.7419 30.1455 44.5364 32.3591 46.75 32.3591Z" fill="url(#paint6_radial_171_9466)"/>
<path d="M46.75 32.3591C48.9636 32.3591 50.7581 30.1455 50.7581 27.4149C50.7581 24.6843 48.9636 22.4707 46.75 22.4707C44.5364 22.4707 42.7419 24.6843 42.7419 27.4149C42.7419 30.1455 44.5364 32.3591 46.75 32.3591Z" stroke="url(#paint7_linear_171_9466)" stroke-width="0.294386" stroke-miterlimit="10"/>
<path d="M17.8335 56.8786L17.9319 57.034C17.8252 57.1016 17.7019 57.1383 17.5756 57.14L17.5731 57.14C17.4626 57.14 17.3537 57.1131 17.2558 57.0618C17.158 57.0104 17.074 56.9361 17.0112 56.8451C16.9484 56.7542 16.9086 56.6494 16.8952 56.5396L17.0779 56.5174L16.8952 56.5396C16.8819 56.43 16.8953 56.3188 16.9344 56.2155M17.8335 56.8786L17.1065 56.2804M17.8335 56.8786L17.9319 57.034C18.0386 56.9665 18.1245 56.8706 18.18 56.7572L18.1802 56.7567C21.5229 49.8767 28.0221 44.5565 35.46 44.5565C42.8978 44.5565 49.3926 49.881 52.7354 56.7568L52.7355 56.7569C52.7909 56.8706 52.8767 56.9666 52.9836 57.0343C53.0904 57.1019 53.2139 57.1385 53.3404 57.14C53.4515 57.1413 53.5614 57.1154 53.6603 57.0646C53.7592 57.0138 53.8443 56.9396 53.908 56.8485C53.9717 56.7573 54.0123 56.652 54.026 56.5417C54.0398 56.4314 54.0265 56.3195 53.9872 56.2156M17.8335 56.8786L53.815 56.2804M16.9344 56.2155C16.9344 56.2154 16.9344 56.2153 16.9344 56.2153L17.1065 56.2804M16.9344 56.2155C16.9343 56.2156 16.9343 56.2156 16.9343 56.2157L17.1065 56.2804M16.9344 56.2155C19.9255 48.2537 27.0777 41.6715 35.46 41.6715C43.8424 41.6715 50.9961 48.2597 53.9872 56.2156M17.1065 56.2804C20.0798 48.3658 27.1775 41.8555 35.46 41.8555C43.7426 41.8555 50.8417 48.3717 53.815 56.2804M53.9872 56.2156C53.9872 56.2155 53.9871 56.2154 53.9871 56.2152L53.815 56.2804M53.9872 56.2156L53.815 56.2804" stroke="url(#paint8_linear_171_9466)" stroke-width="0.367982" stroke-miterlimit="10"/>
<path d="M53.3425 56.956C53.2502 56.9549 53.16 56.9282 53.082 56.8788C53.004 56.8294 52.9413 56.7593 52.9009 56.6763C49.5376 49.7583 42.9889 44.3725 35.46 44.3725C27.9311 44.3725 21.3781 49.7538 18.0147 56.6763C17.9742 56.7592 17.9114 56.8292 17.8335 56.8786C17.7555 56.928 17.6654 56.9548 17.5731 56.956C17.4924 56.956 17.4128 56.9364 17.3413 56.8989C17.2698 56.8613 17.2085 56.807 17.1626 56.7406C17.1167 56.6741 17.0877 56.5975 17.0779 56.5174C17.0681 56.4372 17.0779 56.3559 17.1065 56.2804C20.0798 48.3658 27.1775 41.8555 35.46 41.8555C43.7426 41.8555 50.8417 48.3717 53.815 56.2804C53.8438 56.3564 53.8535 56.4382 53.8435 56.5189C53.8334 56.5995 53.8038 56.6764 53.7572 56.743C53.7107 56.8096 53.6485 56.8638 53.5763 56.9009C53.504 56.938 53.4237 56.9569 53.3425 56.956Z" fill="url(#paint9_radial_171_9466)"/>
<defs>
<filter id="filter0_f_171_9466" x="-3.94691" y="30.4042" width="78.7515" height="45.1292" filterUnits="userSpaceOnUse" color-interpolation-filters="sRGB">
<feFlood flood-opacity="0" result="BackgroundImageFix"/>
<feBlend mode="normal" in="SourceGraphic" in2="BackgroundImageFix" result="shape"/>
<feGaussianBlur stdDeviation="1.83991" result="effect1_foregroundBlur_171_9466"/>
</filter>
<filter id="filter1_f_171_9466" x="-6.15481" y="28.1963" width="83.1673" height="49.545" filterUnits="userSpaceOnUse" color-interpolation-filters="sRGB">
<feFlood flood-opacity="0" result="BackgroundImageFix"/>
<feBlend mode="normal" in="SourceGraphic" in2="BackgroundImageFix" result="shape"/>
<feGaussianBlur stdDeviation="2.94386" result="effect1_foregroundBlur_171_9466"/>
</filter>
<radialGradient id="paint0_radial_171_9466" cx="0" cy="0" r="1" gradientUnits="userSpaceOnUse" gradientTransform="translate(35.4735) rotate(90) scale(70.947)">
<stop stop-color="#FFDE43"/>
<stop offset="1" stop-color="#FFBC00"/>
</radialGradient>
<radialGradient id="paint1_radial_171_9466" cx="0" cy="0" r="1" gradientUnits="userSpaceOnUse" gradientTransform="translate(35.4735 9.49395) rotate(90) scale(61.4531)">
<stop stop-color="white" stop-opacity="0.5"/>
<stop offset="0.782278"/>
</radialGradient>
<radialGradient id="paint2_radial_171_9466" cx="0" cy="0" r="1" gradientUnits="userSpaceOnUse" gradientTransform="translate(35.4735 9.49395) rotate(90) scale(61.4531)">
<stop stop-color="white" stop-opacity="0.5"/>
<stop offset="0.782278"/>
</radialGradient>
<radialGradient id="paint3_radial_171_9466" cx="0" cy="0" r="1" gradientUnits="userSpaceOnUse" gradientTransform="translate(35.4735 -7.72763) rotate(90) scale(78.6746 106.396)">
<stop offset="0.0922635" stop-color="white"/>
<stop offset="0.670207" stop-color="white" stop-opacity="0"/>
</radialGradient>
<radialGradient id="paint4_radial_171_9466" cx="0" cy="0" r="1" gradientUnits="userSpaceOnUse" gradientTransform="translate(24.168 27.4116) scale(5.10931 4.95279)">
<stop stop-color="#743C1C"/>
<stop offset="1" stop-color="#401C02"/>
</radialGradient>
<linearGradient id="paint5_linear_171_9466" x1="24.1736" y1="32.6374" x2="24.1736" y2="22.1525" gradientUnits="userSpaceOnUse">
<stop stop-color="#FFDE43"/>
<stop offset="0.22" stop-color="#FED93F"/>
<stop offset="0.51" stop-color="#FCC934"/>
<stop offset="0.82" stop-color="#F9AF21"/>
<stop offset="1" stop-color="#F79D14"/>
</linearGradient>
<radialGradient id="paint6_radial_171_9466" cx="0" cy="0" r="1" gradientUnits="userSpaceOnUse" gradientTransform="translate(46.7445 27.4116) scale(5.10931 4.95279)">
<stop stop-color="#743C1C"/>
<stop offset="1" stop-color="#401C02"/>
</radialGradient>
<linearGradient id="paint7_linear_171_9466" x1="46.75" y1="32.6374" x2="46.75" y2="22.1525" gradientUnits="userSpaceOnUse">
<stop stop-color="#FFDE43"/>
<stop offset="0.22" stop-color="#FED93F"/>
<stop offset="0.51" stop-color="#FCC934"/>
<stop offset="0.82" stop-color="#F9AF21"/>
<stop offset="1" stop-color="#F79D14"/>
</linearGradient>
<linearGradient id="paint8_linear_171_9466" x1="35.4608" y1="57.3809" x2="35.4608" y2="41.3696" gradientUnits="userSpaceOnUse">
<stop offset="0.265625" stop-color="#FFDE43"/>
<stop offset="1" stop-color="#F79D14"/>
</linearGradient>
<radialGradient id="paint9_radial_171_9466" cx="0" cy="0" r="1" gradientUnits="userSpaceOnUse" gradientTransform="translate(35.4608 49.3752) scale(13.8786 15.2524)">
<stop stop-color="#743C1C"/>
<stop offset="1" stop-color="#401C02"/>
</radialGradient>
</defs>
</svg>
