<svg width="86" height="86" viewBox="0 0 86 86" fill="none" xmlns="http://www.w3.org/2000/svg">
<path d="M43.3362 85.7656C66.8174 85.7656 85.8527 66.7303 85.8527 43.249C85.8527 19.7677 66.8174 0.732422 43.3362 0.732422C19.8549 0.732422 0.81958 19.7677 0.81958 43.249C0.81958 66.7303 19.8549 85.7656 43.3362 85.7656Z" fill="url(#paint0_radial_171_9393)"/>
<g style="mix-blend-mode:soft-light">
<path d="M43.3362 85.7656C66.8174 85.7656 85.8527 66.7303 85.8527 43.249C85.8527 19.7677 66.8174 0.732422 43.3362 0.732422C19.8549 0.732422 0.81958 19.7677 0.81958 43.249C0.81958 66.7303 19.8549 85.7656 43.3362 85.7656Z" fill="url(#paint1_radial_171_9393)"/>
</g>
<g style="mix-blend-mode:soft-light">
<path d="M43.3362 85.7656C66.8174 85.7656 85.8527 66.7303 85.8527 43.249C85.8527 19.7677 66.8174 0.732422 43.3362 0.732422C19.8549 0.732422 0.81958 19.7677 0.81958 43.249C0.81958 66.7303 19.8549 85.7656 43.3362 85.7656Z" fill="url(#paint2_radial_171_9393)"/>
</g>
<g style="mix-blend-mode:overlay">
<path d="M43.3362 85.7656C66.8174 85.7656 85.8527 66.7303 85.8527 43.249C85.8527 19.7677 66.8174 0.732422 43.3362 0.732422C19.8549 0.732422 0.81958 19.7677 0.81958 43.249C0.81958 66.7303 19.8549 85.7656 43.3362 85.7656Z" fill="url(#paint3_radial_171_9393)" fill-opacity="0.7"/>
</g>
<mask id="mask0_171_9393" style="mask-type:alpha" maskUnits="userSpaceOnUse" x="0" y="0" width="86" height="86">
<path d="M43.3362 85.7656C66.8174 85.7656 85.8527 66.7303 85.8527 43.249C85.8527 19.7677 66.8174 0.732422 43.3362 0.732422C19.8549 0.732422 0.81958 19.7677 0.81958 43.249C0.81958 66.7303 19.8549 85.7656 43.3362 85.7656Z" fill="white"/>
</mask>
<g mask="url(#mask0_171_9393)">
<g filter="url(#filter0_f_171_9393)">
<path d="M0.576908 42.0358C0.623075 41.4318 0.821875 41.3712 0.879859 41.9847C0.94428 42.6662 0.819052 44.0363 0.849201 44.8627C0.929031 47.051 1.26448 48.9537 1.61029 50.5014C2.72466 55.4888 4.2679 58.7026 5.7073 61.4255C10.4387 70.3759 15.6216 74.9081 20.6776 78.3239C28.089 83.3309 35.5605 84.9235 43.0381 85.2613C43.2268 85.2699 43.2582 86.4984 43.0726 86.6584C42.738 86.9468 42.3235 86.6606 41.9811 86.6486C40.9975 86.6141 40.0139 86.5466 39.0304 86.4444C36.1141 86.1413 33.1979 85.5241 30.2876 84.5312C22.3747 81.8315 13.8428 77.2087 6.39171 64.1885C5.92297 63.3694 5.45795 62.507 4.99951 61.5804C4.63288 60.8393 4.26982 60.0624 3.91315 59.2316C2.74001 56.4988 0.00621332 49.5032 0.576908 42.0358ZM43.0434 86.6716C42.8635 86.6771 42.8179 85.5318 42.9894 85.294C43.2486 84.9346 43.6372 85.2306 43.9105 85.2135C45.0455 85.1426 46.1803 85.0373 47.3148 84.8949C50.4254 84.5043 53.5338 83.8373 56.6351 82.8103C64.3276 80.2628 72.5977 76.3792 79.8492 64.4475C80.3107 63.6881 80.7682 62.8825 81.2196 62.0164C82.5913 59.3848 86.0291 52.3989 85.6317 43.7145C85.5982 42.9824 85.8211 42.5439 85.9209 43.172C86.0478 43.9715 85.9963 45.6386 85.9613 46.5257C85.8493 49.3666 85.413 51.7691 84.953 53.7093C83.4951 59.8583 81.4483 63.4236 79.574 66.4004C73.4816 76.0763 66.8646 79.977 60.4314 82.78C54.6614 85.294 48.8474 86.4924 43.0434 86.6716Z" fill="#401C02"/>
</g>
<g filter="url(#filter1_f_171_9393)">
<path d="M0.576908 42.0358C0.623075 41.4318 0.821875 41.3712 0.879859 41.9847C0.94428 42.6662 0.819052 44.0363 0.849201 44.8627C0.929031 47.051 1.26448 48.9537 1.61029 50.5014C2.72466 55.4888 4.2679 58.7026 5.7073 61.4255C10.4387 70.3759 15.6216 74.9081 20.6776 78.3239C28.089 83.3309 35.5605 84.9235 43.0381 85.2613C43.2268 85.2699 43.2582 86.4984 43.0726 86.6584C42.738 86.9468 42.3235 86.6606 41.9811 86.6486C40.9975 86.6141 40.0139 86.5466 39.0304 86.4444C36.1141 86.1413 33.1979 85.5241 30.2876 84.5312C22.3747 81.8315 13.8428 77.2087 6.39171 64.1885C5.92297 63.3694 5.45795 62.507 4.99951 61.5804C4.63288 60.8393 4.26982 60.0624 3.91315 59.2316C2.74001 56.4988 0.00621332 49.5032 0.576908 42.0358ZM43.0434 86.6716C42.8635 86.6771 42.8179 85.5318 42.9894 85.294C43.2486 84.9346 43.6372 85.2306 43.9105 85.2135C45.0455 85.1426 46.1803 85.0373 47.3148 84.8949C50.4254 84.5043 53.5338 83.8373 56.6351 82.8103C64.3276 80.2628 72.5977 76.3792 79.8492 64.4475C80.3107 63.6881 80.7682 62.8825 81.2196 62.0164C82.5913 59.3848 86.0291 52.3989 85.6317 43.7145C85.5982 42.9824 85.8211 42.5439 85.9209 43.172C86.0478 43.9715 85.9963 45.6386 85.9613 46.5257C85.8493 49.3666 85.413 51.7691 84.953 53.7093C83.4951 59.8583 81.4483 63.4236 79.574 66.4004C73.4816 76.0763 66.8646 79.977 60.4314 82.78C54.6614 85.294 48.8474 86.4924 43.0434 86.6716Z" fill="#401C02"/>
</g>
</g>
<path d="M60.3364 57.8245C60.3706 57.8036 60.4108 57.7948 60.4506 57.7998C60.4904 57.8048 60.5272 57.8232 60.5552 57.8519C60.5831 57.8806 60.6004 57.918 60.6042 57.9579C60.608 57.9978 60.5981 58.0378 60.5762 58.0713C60.2461 58.5428 59.882 58.9894 59.4867 59.4076C59.3422 59.5592 59.1976 59.7108 59.0495 59.8589C58.9014 60.0069 58.7428 60.1427 58.5894 60.2855C58.4361 60.4283 58.2774 60.5711 58.1152 60.7033L57.6216 61.0946C56.2733 62.1187 54.803 62.9715 53.2444 63.6331C46.8807 66.1728 39.7849 66.1728 33.4211 63.6331C31.8657 62.9722 30.3984 62.1207 29.0528 61.0982L28.5592 60.7068C28.397 60.5728 28.2401 60.43 28.085 60.289C27.9298 60.148 27.7747 60.0105 27.6248 59.8624C27.475 59.7143 27.3322 59.5609 27.1877 59.4111C26.7917 58.9905 26.427 58.5415 26.0965 58.0678C26.0745 58.0343 26.0646 57.9943 26.0684 57.9544C26.0723 57.9145 26.0895 57.8771 26.1175 57.8484C26.1454 57.8196 26.1823 57.8013 26.222 57.7963C26.2618 57.7913 26.3021 57.8 26.3362 57.821C27.4835 58.5089 28.6843 59.1032 29.9271 59.598C31.3529 60.1707 32.8174 60.642 34.3096 61.0082C40.2579 62.3456 46.4289 62.3456 52.3771 61.0082C53.8696 60.643 55.3342 60.1717 56.7596 59.598C57.9977 59.1042 59.1939 58.5111 60.3364 57.8245Z" fill="url(#paint4_radial_171_9393)"/>
<path d="M60.2995 57.8248C60.3336 57.8047 60.3735 57.7967 60.4128 57.802C60.452 57.8074 60.4883 57.8258 60.5158 57.8543C60.5433 57.8828 60.5604 57.9198 60.5643 57.9592C60.5683 57.9986 60.5588 58.0382 60.5375 58.0716C60.2075 58.543 59.8434 58.9896 59.448 59.4078C59.3035 59.5594 59.1607 59.711 59.0109 59.8591C58.861 60.0072 58.7041 60.1429 58.5508 60.2857C58.3974 60.4285 58.2405 60.5713 58.0766 60.7035L57.583 61.0949C56.2344 62.1195 54.7634 62.9723 53.204 63.6334C46.8396 66.173 39.7433 66.173 33.3789 63.6334C31.8204 62.971 30.3501 62.1177 29.0018 61.0931L28.5082 60.7017C28.346 60.5678 28.1908 60.425 28.0357 60.2839C27.8806 60.1429 27.7237 60.0054 27.5756 59.8573C27.4275 59.7093 27.283 59.5559 27.1384 59.406C26.7452 58.9873 26.3834 58.54 26.056 58.068C26.0347 58.0346 26.0253 57.9951 26.0292 57.9557C26.0331 57.9162 26.0502 57.8793 26.0777 57.8508C26.1052 57.8223 26.1415 57.8039 26.1807 57.7985C26.22 57.7931 26.2599 57.8011 26.294 57.8212C27.4419 58.5092 28.6433 59.1034 29.8867 59.5982C31.3118 60.1712 32.7757 60.6424 34.2674 61.0085C40.2157 62.3459 46.3867 62.3459 52.3349 61.0085C53.8275 60.6435 55.2921 60.1722 56.7174 59.5982C57.9573 59.1046 59.1552 58.5115 60.2995 57.8248Z" stroke="url(#paint5_linear_171_9393)" stroke-width="0.440714" stroke-miterlimit="10"/>
<path d="M55.8279 42.2133C58.369 42.2133 60.4289 39.1234 60.4289 35.3117C60.4289 31.5001 58.369 28.4102 55.8279 28.4102C53.2868 28.4102 51.2268 31.5001 51.2268 35.3117C51.2268 39.1234 53.2868 42.2133 55.8279 42.2133Z" fill="url(#paint6_radial_171_9393)"/>
<path d="M55.8279 42.2133C58.369 42.2133 60.4289 39.1234 60.4289 35.3117C60.4289 31.5001 58.369 28.4102 55.8279 28.4102C53.2868 28.4102 51.2268 31.5001 51.2268 35.3117C51.2268 39.1234 53.2868 42.2133 55.8279 42.2133Z" stroke="url(#paint7_linear_171_9393)" stroke-width="0.352571" stroke-miterlimit="10"/>
<path d="M30.9822 42.2133C33.5233 42.2133 35.5832 39.1234 35.5832 35.3117C35.5832 31.5001 33.5233 28.4102 30.9822 28.4102C28.4411 28.4102 26.3811 31.5001 26.3811 35.3117C26.3811 39.1234 28.4411 42.2133 30.9822 42.2133Z" fill="url(#paint8_radial_171_9393)"/>
<path d="M30.9822 42.2133C33.5233 42.2133 35.5832 39.1234 35.5832 35.3117C35.5832 31.5001 33.5233 28.4102 30.9822 28.4102C28.4411 28.4102 26.3811 31.5001 26.3811 35.3117C26.3811 39.1234 28.4411 42.2133 30.9822 42.2133Z" stroke="url(#paint9_linear_171_9393)" stroke-width="0.352571" stroke-miterlimit="10"/>
<defs>
<filter id="filter0_f_171_9393" x="-3.90763" y="37.1456" width="94.3167" height="54.0487" filterUnits="userSpaceOnUse" color-interpolation-filters="sRGB">
<feFlood flood-opacity="0" result="BackgroundImageFix"/>
<feBlend mode="normal" in="SourceGraphic" in2="BackgroundImageFix" result="shape"/>
<feGaussianBlur stdDeviation="2.20357" result="effect1_foregroundBlur_171_9393"/>
</filter>
<filter id="filter1_f_171_9393" x="-6.55192" y="34.5013" width="99.6053" height="59.3372" filterUnits="userSpaceOnUse" color-interpolation-filters="sRGB">
<feFlood flood-opacity="0" result="BackgroundImageFix"/>
<feBlend mode="normal" in="SourceGraphic" in2="BackgroundImageFix" result="shape"/>
<feGaussianBlur stdDeviation="3.52571" result="effect1_foregroundBlur_171_9393"/>
</filter>
<radialGradient id="paint0_radial_171_9393" cx="0" cy="0" r="1" gradientUnits="userSpaceOnUse" gradientTransform="translate(43.3044 0.732421) rotate(90) scale(84.9697)">
<stop stop-color="#FFDE43"/>
<stop offset="1" stop-color="#FFBC00"/>
</radialGradient>
<radialGradient id="paint1_radial_171_9393" cx="0" cy="0" r="1" gradientUnits="userSpaceOnUse" gradientTransform="translate(43.3044 12.1028) rotate(90) scale(73.5993)">
<stop stop-color="white" stop-opacity="0.5"/>
<stop offset="0.782278"/>
</radialGradient>
<radialGradient id="paint2_radial_171_9393" cx="0" cy="0" r="1" gradientUnits="userSpaceOnUse" gradientTransform="translate(43.3044 12.1028) rotate(90) scale(73.5993)">
<stop stop-color="white" stop-opacity="0.5"/>
<stop offset="0.782278"/>
</radialGradient>
<radialGradient id="paint3_radial_171_9393" cx="0" cy="0" r="1" gradientUnits="userSpaceOnUse" gradientTransform="translate(43.3044 -8.52257) rotate(90) scale(94.2247 127.425)">
<stop offset="0.0922635" stop-color="white"/>
<stop offset="0.670207" stop-color="white" stop-opacity="0"/>
</radialGradient>
<radialGradient id="paint4_radial_171_9393" cx="0" cy="0" r="1" gradientUnits="userSpaceOnUse" gradientTransform="translate(43.3363 61.6508) scale(13.0348 7.82083)">
<stop stop-color="#743C1C"/>
<stop offset="1" stop-color="#401C02"/>
</radialGradient>
<linearGradient id="paint5_linear_171_9393" x1="43.2968" y1="65.7559" x2="43.2968" y2="57.5478" gradientUnits="userSpaceOnUse">
<stop offset="0.265625" stop-color="#FFDE43"/>
<stop offset="1" stop-color="#F79D14"/>
</linearGradient>
<radialGradient id="paint6_radial_171_9393" cx="0" cy="0" r="1" gradientUnits="userSpaceOnUse" gradientTransform="translate(55.8215 35.3071) scale(5.86523 6.91356)">
<stop stop-color="#743C1C"/>
<stop offset="1" stop-color="#401C02"/>
</radialGradient>
<linearGradient id="paint7_linear_171_9393" x1="55.8279" y1="42.6017" x2="55.8279" y2="27.966" gradientUnits="userSpaceOnUse">
<stop stop-color="#FFDE43"/>
<stop offset="0.22" stop-color="#FED93F"/>
<stop offset="0.51" stop-color="#FCC934"/>
<stop offset="0.82" stop-color="#F9AF21"/>
<stop offset="1" stop-color="#F79D14"/>
</linearGradient>
<radialGradient id="paint8_radial_171_9393" cx="0" cy="0" r="1" gradientUnits="userSpaceOnUse" gradientTransform="translate(30.9758 35.3071) scale(5.86523 6.91356)">
<stop stop-color="#743C1C"/>
<stop offset="1" stop-color="#401C02"/>
</radialGradient>
<linearGradient id="paint9_linear_171_9393" x1="30.9822" y1="42.6017" x2="30.9822" y2="27.966" gradientUnits="userSpaceOnUse">
<stop stop-color="#FFDE43"/>
<stop offset="0.22" stop-color="#FED93F"/>
<stop offset="0.51" stop-color="#FCC934"/>
<stop offset="0.82" stop-color="#F9AF21"/>
<stop offset="1" stop-color="#F79D14"/>
</linearGradient>
</defs>
</svg>
