<svg width="94" height="86" viewBox="0 0 94 86" fill="none" xmlns="http://www.w3.org/2000/svg">
<path d="M46.5166 85.7656C69.9978 85.7656 89.0331 66.7303 89.0331 43.249C89.0331 19.7677 69.9978 0.732422 46.5166 0.732422C23.0353 0.732422 4 19.7677 4 43.249C4 66.7303 23.0353 85.7656 46.5166 85.7656Z" fill="url(#paint0_radial_171_9413)"/>
<g style="mix-blend-mode:soft-light">
<path d="M46.5166 85.7656C69.9978 85.7656 89.0331 66.7303 89.0331 43.249C89.0331 19.7677 69.9978 0.732422 46.5166 0.732422C23.0353 0.732422 4 19.7677 4 43.249C4 66.7303 23.0353 85.7656 46.5166 85.7656Z" fill="url(#paint1_radial_171_9413)"/>
</g>
<g style="mix-blend-mode:soft-light">
<path d="M46.5166 85.7656C69.9978 85.7656 89.0331 66.7303 89.0331 43.249C89.0331 19.7677 69.9978 0.732422 46.5166 0.732422C23.0353 0.732422 4 19.7677 4 43.249C4 66.7303 23.0353 85.7656 46.5166 85.7656Z" fill="url(#paint2_radial_171_9413)"/>
</g>
<g style="mix-blend-mode:overlay">
<path d="M46.5166 85.7656C69.9978 85.7656 89.0331 66.7303 89.0331 43.249C89.0331 19.7677 69.9978 0.732422 46.5166 0.732422C23.0353 0.732422 4 19.7677 4 43.249C4 66.7303 23.0353 85.7656 46.5166 85.7656Z" fill="url(#paint3_radial_171_9413)" fill-opacity="0.7"/>
</g>
<mask id="mask0_171_9413" style="mask-type:alpha" maskUnits="userSpaceOnUse" x="4" y="0" width="86" height="86">
<path d="M46.5166 85.7656C69.9978 85.7656 89.0331 66.7303 89.0331 43.249C89.0331 19.7677 69.9978 0.732422 46.5166 0.732422C23.0353 0.732422 4 19.7677 4 43.249C4 66.7303 23.0353 85.7656 46.5166 85.7656Z" fill="white"/>
</mask>
<g mask="url(#mask0_171_9413)">
<g filter="url(#filter0_f_171_9413)">
<path d="M3.75733 42.0358C3.80349 41.4318 4.0023 41.3712 4.06028 41.9847C4.1247 42.6662 3.99947 44.0363 4.02962 44.8627C4.10945 47.051 4.4449 48.9537 4.79071 50.5014C5.90508 55.4888 7.44832 58.7026 8.88772 61.4255C13.6191 70.3759 18.802 74.9081 23.8581 78.3239C31.2694 83.3309 38.7409 84.9235 46.2186 85.2613C46.4072 85.2699 46.4386 86.4984 46.253 86.6584C45.9184 86.9468 45.5039 86.6606 45.1616 86.6486C44.178 86.6141 43.1944 86.5466 42.2108 86.4444C39.2945 86.1413 36.3784 85.5241 33.4681 84.5312C25.5551 81.8315 17.0232 77.2087 9.57213 64.1885C9.10339 63.3694 8.63837 62.507 8.17993 61.5804C7.8133 60.8393 7.45024 60.0624 7.09357 59.2316C5.92043 56.4988 3.18663 49.5032 3.75733 42.0358ZM46.2238 86.6716C46.0439 86.6771 45.9983 85.5318 46.1698 85.294C46.429 84.9346 46.8176 85.2306 47.0909 85.2135C48.2259 85.1426 49.3607 85.0373 50.4952 84.8949C53.6058 84.5043 56.7142 83.8373 59.8156 82.8103C67.508 80.2628 75.7781 76.3792 83.0296 64.4475C83.4911 63.6881 83.9486 62.8825 84.4 62.0164C85.7717 59.3848 89.2096 52.3989 88.8121 43.7145C88.7786 42.9824 89.0016 42.5439 89.1013 43.172C89.2283 43.9715 89.1767 45.6386 89.1417 46.5257C89.0297 49.3666 88.5934 51.7691 88.1334 53.7093C86.6755 59.8583 84.6288 63.4236 82.7544 66.4004C76.662 76.0763 70.045 79.977 63.6118 82.78C57.8418 85.294 52.0279 86.4924 46.2238 86.6716Z" fill="#401C02"/>
</g>
<g filter="url(#filter1_f_171_9413)">
<path d="M3.75733 42.0358C3.80349 41.4318 4.0023 41.3712 4.06028 41.9847C4.1247 42.6662 3.99947 44.0363 4.02962 44.8627C4.10945 47.051 4.4449 48.9537 4.79071 50.5014C5.90508 55.4888 7.44832 58.7026 8.88772 61.4255C13.6191 70.3759 18.802 74.9081 23.8581 78.3239C31.2694 83.3309 38.7409 84.9235 46.2186 85.2613C46.4072 85.2699 46.4386 86.4984 46.253 86.6584C45.9184 86.9468 45.5039 86.6606 45.1616 86.6486C44.178 86.6141 43.1944 86.5466 42.2108 86.4444C39.2945 86.1413 36.3784 85.5241 33.4681 84.5312C25.5551 81.8315 17.0232 77.2087 9.57213 64.1885C9.10339 63.3694 8.63837 62.507 8.17993 61.5804C7.8133 60.8393 7.45024 60.0624 7.09357 59.2316C5.92043 56.4988 3.18663 49.5032 3.75733 42.0358ZM46.2238 86.6716C46.0439 86.6771 45.9983 85.5318 46.1698 85.294C46.429 84.9346 46.8176 85.2306 47.0909 85.2135C48.2259 85.1426 49.3607 85.0373 50.4952 84.8949C53.6058 84.5043 56.7142 83.8373 59.8156 82.8103C67.508 80.2628 75.7781 76.3792 83.0296 64.4475C83.4911 63.6881 83.9486 62.8825 84.4 62.0164C85.7717 59.3848 89.2096 52.3989 88.8121 43.7145C88.7786 42.9824 89.0016 42.5439 89.1013 43.172C89.2283 43.9715 89.1767 45.6386 89.1417 46.5257C89.0297 49.3666 88.5934 51.7691 88.1334 53.7093C86.6755 59.8583 84.6288 63.4236 82.7544 66.4004C76.662 76.0763 70.045 79.977 63.6118 82.78C57.8418 85.294 52.0279 86.4924 46.2238 86.6716Z" fill="#401C02"/>
</g>
</g>
<g opacity="0.85">
<g filter="url(#filter2_f_171_9413)">
<circle cx="73.6329" cy="47.0955" r="8.81428" fill="#E66200"/>
</g>
<g filter="url(#filter3_f_171_9413)">
<circle cx="19.5133" cy="47.0955" r="8.81428" fill="#E66200"/>
</g>
</g>
<path d="M70.9787 53.2303C60.5268 69.2511 32.3493 69.2599 21.922 53.2144C21.83 53.0734 21.7903 52.9046 21.8098 52.7374C21.8292 52.5702 21.9065 52.415 22.0284 52.2988C22.1502 52.1827 22.3088 52.1128 22.4768 52.1013C22.6448 52.0898 22.8114 52.1375 22.9479 52.236C36.5784 62.0622 56.3223 62.0798 69.951 52.2519C70.0874 52.1522 70.2545 52.1036 70.4231 52.1146C70.5917 52.1255 70.7511 52.1953 70.8735 52.3118C70.9959 52.4283 71.0734 52.5841 71.0927 52.752C71.1119 52.9198 71.0716 53.0891 70.9787 53.2303V53.2303Z" fill="url(#paint4_radial_171_9413)"/>
<path d="M70.9787 53.2303C60.5268 69.2511 32.3493 69.2599 21.922 53.2144C21.83 53.0734 21.7903 52.9046 21.8098 52.7374C21.8292 52.5702 21.9065 52.415 22.0284 52.2988C22.1502 52.1827 22.3088 52.1128 22.4768 52.1013C22.6448 52.0898 22.8114 52.1375 22.9479 52.236C36.5784 62.0622 56.3223 62.0798 69.951 52.2519C70.0874 52.1522 70.2545 52.1036 70.4231 52.1146C70.5917 52.1255 70.7511 52.1953 70.8735 52.3118C70.9959 52.4283 71.0734 52.5841 71.0927 52.752C71.1119 52.9198 71.0716 53.0891 70.9787 53.2303V53.2303Z" stroke="url(#paint5_linear_171_9413)" stroke-width="0.440714" stroke-miterlimit="10"/>
<path d="M40.4207 37.6612C40.4272 39.2022 40.1861 40.7343 39.7068 42.1988C39.657 42.3643 39.5563 42.5098 39.4188 42.6146C39.2814 42.7194 39.1144 42.7781 38.9417 42.7823C38.7445 42.7761 38.5559 42.7 38.4097 42.5676C38.2634 42.4352 38.1689 42.2551 38.1431 42.0596C37.6002 38.8071 35.4883 36.3814 32.9638 36.3814C30.4394 36.3814 28.3275 38.8071 27.7846 42.0596C27.7588 42.2551 27.6643 42.4352 27.518 42.5676C27.3717 42.7 27.1832 42.7761 26.986 42.7823V42.7823C26.8133 42.7779 26.6464 42.7191 26.5091 42.6143C26.3717 42.5096 26.2709 42.3642 26.2209 42.1988C25.7416 40.7343 25.5005 39.2022 25.507 37.6612C25.507 31.7997 28.8458 27.0488 32.9638 27.0488C37.0819 27.0488 40.4207 31.7997 40.4207 37.6612Z" fill="url(#paint6_radial_171_9413)"/>
<path d="M40.4207 37.6612C40.4272 39.2022 40.1861 40.7343 39.7068 42.1988C39.657 42.3643 39.5563 42.5098 39.4188 42.6146C39.2814 42.7194 39.1144 42.7781 38.9417 42.7823C38.7445 42.7761 38.5559 42.7 38.4097 42.5676C38.2634 42.4352 38.1689 42.2551 38.1431 42.0596C37.6002 38.8071 35.4883 36.3814 32.9638 36.3814C30.4394 36.3814 28.3275 38.8071 27.7846 42.0596C27.7588 42.2551 27.6643 42.4352 27.518 42.5676C27.3717 42.7 27.1832 42.7761 26.986 42.7823V42.7823C26.8133 42.7779 26.6464 42.7191 26.5091 42.6143C26.3717 42.5096 26.2709 42.3642 26.2209 42.1988C25.7416 40.7343 25.5005 39.2022 25.507 37.6612C25.507 31.7997 28.8458 27.0488 32.9638 27.0488C37.0819 27.0488 40.4207 31.7997 40.4207 37.6612Z" stroke="url(#paint7_linear_171_9413)" stroke-width="0.352571" stroke-miterlimit="10"/>
<path d="M67.6358 37.6612C67.6451 39.2017 67.407 40.7338 66.9306 42.1988C66.8809 42.3643 66.7801 42.5098 66.6427 42.6146C66.5053 42.7194 66.3383 42.7781 66.1656 42.7823C65.9684 42.7761 65.7798 42.7 65.6336 42.5676C65.4873 42.4352 65.3928 42.2551 65.367 42.0596C64.824 38.8071 62.7121 36.3814 60.1877 36.3814C57.6633 36.3814 55.5514 38.8071 55.0084 42.0596C54.9826 42.2551 54.8882 42.4352 54.7419 42.5676C54.5956 42.7 54.4071 42.7761 54.2099 42.7823V42.7823C54.0371 42.7781 53.8701 42.7194 53.7327 42.6146C53.5953 42.5098 53.4945 42.3643 53.4448 42.1988C52.9654 40.7343 52.7244 39.2022 52.7308 37.6612C52.7308 31.7997 56.0697 27.0488 60.1877 27.0488C64.3058 27.0488 67.6358 31.7997 67.6358 37.6612Z" fill="url(#paint8_radial_171_9413)"/>
<path d="M67.6358 37.6612C67.6451 39.2017 67.407 40.7338 66.9306 42.1988C66.8809 42.3643 66.7801 42.5098 66.6427 42.6146C66.5053 42.7194 66.3383 42.7781 66.1656 42.7823C65.9684 42.7761 65.7798 42.7 65.6336 42.5676C65.4873 42.4352 65.3928 42.2551 65.367 42.0596C64.824 38.8071 62.7121 36.3814 60.1877 36.3814C57.6633 36.3814 55.5514 38.8071 55.0084 42.0596C54.9826 42.2551 54.8882 42.4352 54.7419 42.5676C54.5956 42.7 54.4071 42.7761 54.2099 42.7823V42.7823C54.0371 42.7781 53.8701 42.7194 53.7327 42.6146C53.5953 42.5098 53.4945 42.3643 53.4448 42.1988C52.9654 40.7343 52.7244 39.2022 52.7308 37.6612C52.7308 31.7997 56.0697 27.0488 60.1877 27.0488C64.3058 27.0488 67.6358 31.7997 67.6358 37.6612Z" fill="url(#paint9_radial_171_9413)"/>
<path d="M67.6358 37.6612C67.6451 39.2017 67.407 40.7338 66.9306 42.1988C66.8809 42.3643 66.7801 42.5098 66.6427 42.6146C66.5053 42.7194 66.3383 42.7781 66.1656 42.7823C65.9684 42.7761 65.7798 42.7 65.6336 42.5676C65.4873 42.4352 65.3928 42.2551 65.367 42.0596C64.824 38.8071 62.7121 36.3814 60.1877 36.3814C57.6633 36.3814 55.5514 38.8071 55.0084 42.0596C54.9826 42.2551 54.8882 42.4352 54.7419 42.5676C54.5956 42.7 54.4071 42.7761 54.2099 42.7823V42.7823C54.0371 42.7781 53.8701 42.7194 53.7327 42.6146C53.5953 42.5098 53.4945 42.3643 53.4448 42.1988C52.9654 40.7343 52.7244 39.2022 52.7308 37.6612C52.7308 31.7997 56.0697 27.0488 60.1877 27.0488C64.3058 27.0488 67.6358 31.7997 67.6358 37.6612Z" stroke="url(#paint10_linear_171_9413)" stroke-width="0.352571" stroke-miterlimit="10"/>
<defs>
<filter id="filter0_f_171_9413" x="-0.72721" y="37.1456" width="94.3167" height="54.0487" filterUnits="userSpaceOnUse" color-interpolation-filters="sRGB">
<feFlood flood-opacity="0" result="BackgroundImageFix"/>
<feBlend mode="normal" in="SourceGraphic" in2="BackgroundImageFix" result="shape"/>
<feGaussianBlur stdDeviation="2.20357" result="effect1_foregroundBlur_171_9413"/>
</filter>
<filter id="filter1_f_171_9413" x="-3.3715" y="34.5013" width="99.6053" height="59.3372" filterUnits="userSpaceOnUse" color-interpolation-filters="sRGB">
<feFlood flood-opacity="0" result="BackgroundImageFix"/>
<feBlend mode="normal" in="SourceGraphic" in2="BackgroundImageFix" result="shape"/>
<feGaussianBlur stdDeviation="3.52571" result="effect1_foregroundBlur_171_9413"/>
</filter>
<filter id="filter2_f_171_9413" x="54.2415" y="27.7041" width="38.7829" height="38.7832" filterUnits="userSpaceOnUse" color-interpolation-filters="sRGB">
<feFlood flood-opacity="0" result="BackgroundImageFix"/>
<feBlend mode="normal" in="SourceGraphic" in2="BackgroundImageFix" result="shape"/>
<feGaussianBlur stdDeviation="5.28857" result="effect1_foregroundBlur_171_9413"/>
</filter>
<filter id="filter3_f_171_9413" x="0.121835" y="27.7041" width="38.7829" height="38.7832" filterUnits="userSpaceOnUse" color-interpolation-filters="sRGB">
<feFlood flood-opacity="0" result="BackgroundImageFix"/>
<feBlend mode="normal" in="SourceGraphic" in2="BackgroundImageFix" result="shape"/>
<feGaussianBlur stdDeviation="5.28857" result="effect1_foregroundBlur_171_9413"/>
</filter>
<radialGradient id="paint0_radial_171_9413" cx="0" cy="0" r="1" gradientUnits="userSpaceOnUse" gradientTransform="translate(46.4848 0.732421) rotate(90) scale(84.9697)">
<stop stop-color="#FFDE43"/>
<stop offset="1" stop-color="#FFBC00"/>
</radialGradient>
<radialGradient id="paint1_radial_171_9413" cx="0" cy="0" r="1" gradientUnits="userSpaceOnUse" gradientTransform="translate(46.4848 12.1028) rotate(90) scale(73.5993)">
<stop stop-color="white" stop-opacity="0.5"/>
<stop offset="0.782278"/>
</radialGradient>
<radialGradient id="paint2_radial_171_9413" cx="0" cy="0" r="1" gradientUnits="userSpaceOnUse" gradientTransform="translate(46.4848 12.1028) rotate(90) scale(73.5993)">
<stop stop-color="white" stop-opacity="0.5"/>
<stop offset="0.782278"/>
</radialGradient>
<radialGradient id="paint3_radial_171_9413" cx="0" cy="0" r="1" gradientUnits="userSpaceOnUse" gradientTransform="translate(46.4849 -8.52257) rotate(90) scale(94.2247 127.425)">
<stop offset="0.0922635" stop-color="white"/>
<stop offset="0.670207" stop-color="white" stop-opacity="0"/>
</radialGradient>
<radialGradient id="paint4_radial_171_9413" cx="0" cy="0" r="1" gradientUnits="userSpaceOnUse" gradientTransform="translate(46.4512 58.6469) scale(18.6035 13.2798)">
<stop stop-color="#743C1C"/>
<stop offset="1" stop-color="#401C02"/>
</radialGradient>
<linearGradient id="paint5_linear_171_9413" x1="46.4512" y1="65.6172" x2="46.4512" y2="51.6765" gradientUnits="userSpaceOnUse">
<stop offset="0.265625" stop-color="#FFDE43"/>
<stop offset="1" stop-color="#F79D14"/>
</linearGradient>
<radialGradient id="paint6_radial_171_9413" cx="0" cy="0" r="1" gradientUnits="userSpaceOnUse" gradientTransform="translate(32.9535 34.9103) scale(9.50587 7.88039)">
<stop stop-color="#743C1C"/>
<stop offset="1" stop-color="#401C02"/>
</radialGradient>
<linearGradient id="paint7_linear_171_9413" x1="32.9638" y1="43.225" x2="32.9638" y2="26.5425" gradientUnits="userSpaceOnUse">
<stop stop-color="#FFDE43"/>
<stop offset="0.22" stop-color="#FED93F"/>
<stop offset="0.51" stop-color="#FCC934"/>
<stop offset="0.82" stop-color="#F9AF21"/>
<stop offset="1" stop-color="#F79D14"/>
</linearGradient>
<radialGradient id="paint8_radial_171_9413" cx="0" cy="0" r="1" gradientUnits="userSpaceOnUse" gradientTransform="translate(8655.94 11229.4) scale(620.807 714.277)">
<stop stop-color="#743C1C"/>
<stop offset="1" stop-color="#401C02"/>
</radialGradient>
<radialGradient id="paint9_radial_171_9413" cx="0" cy="0" r="1" gradientUnits="userSpaceOnUse" gradientTransform="translate(60.1731 34.9103) scale(9.50034 7.88039)">
<stop stop-color="#743C1C"/>
<stop offset="1" stop-color="#401C02"/>
</radialGradient>
<linearGradient id="paint10_linear_171_9413" x1="60.1834" y1="43.225" x2="60.1834" y2="26.5425" gradientUnits="userSpaceOnUse">
<stop stop-color="#FFDE43"/>
<stop offset="0.22" stop-color="#FED93F"/>
<stop offset="0.51" stop-color="#FCC934"/>
<stop offset="0.82" stop-color="#F9AF21"/>
<stop offset="1" stop-color="#F79D14"/>
</linearGradient>
</defs>
</svg>
