<svg width="87" height="86" viewBox="0 0 87 86" fill="none" xmlns="http://www.w3.org/2000/svg">
<path d="M43.5 86C67.2482 86 86.5 66.7482 86.5 43C86.5 19.2518 67.2482 0 43.5 0C19.7518 0 0.5 19.2518 0.5 43C0.5 66.7482 19.7518 86 43.5 86Z" fill="url(#paint0_radial_171_9441)"/>
<g style="mix-blend-mode:soft-light">
<path d="M43.5 86C67.2482 86 86.5 66.7482 86.5 43C86.5 19.2518 67.2482 0 43.5 0C19.7518 0 0.5 19.2518 0.5 43C0.5 66.7482 19.7518 86 43.5 86Z" fill="url(#paint1_radial_171_9441)"/>
</g>
<g style="mix-blend-mode:soft-light">
<path d="M43.5 86C67.2482 86 86.5 66.7482 86.5 43C86.5 19.2518 67.2482 0 43.5 0C19.7518 0 0.5 19.2518 0.5 43C0.5 66.7482 19.7518 86 43.5 86Z" fill="url(#paint2_radial_171_9441)"/>
</g>
<g style="mix-blend-mode:overlay">
<path d="M43.5 86C67.2482 86 86.5 66.7482 86.5 43C86.5 19.2518 67.2482 0 43.5 0C19.7518 0 0.5 19.2518 0.5 43C0.5 66.7482 19.7518 86 43.5 86Z" fill="url(#paint3_radial_171_9441)" fill-opacity="0.7"/>
</g>
<mask id="mask0_171_9441" style="mask-type:alpha" maskUnits="userSpaceOnUse" x="0" y="0" width="87" height="86">
<path d="M43.5 86C67.2482 86 86.5 66.7482 86.5 43C86.5 19.2518 67.2482 0 43.5 0C19.7518 0 0.5 19.2518 0.5 43C0.5 66.7482 19.7518 86 43.5 86Z" fill="white"/>
</mask>
<g mask="url(#mask0_171_9441)">
<g filter="url(#filter0_f_171_9441)">
<path d="M0.25479 41.7738C0.301482 41.1628 0.502542 41.1016 0.561185 41.722C0.626339 42.4113 0.499687 43.7969 0.530179 44.6328C0.610917 46.846 0.950178 48.7703 1.29992 50.3356C2.42697 55.3797 3.98775 58.63 5.44352 61.3839C10.2287 70.436 15.4705 75.0198 20.5841 78.4744C28.0797 83.5383 35.6362 85.1491 43.1988 85.4907C43.3896 85.4994 43.4213 86.7419 43.2337 86.9037C42.8953 87.1954 42.4761 86.9059 42.1298 86.8937C41.135 86.8589 40.1402 86.7906 39.1455 86.6872C36.196 86.3807 33.2467 85.7565 30.3033 84.7523C22.3004 82.0219 13.6715 77.3466 6.13571 64.1783C5.66164 63.3499 5.19133 62.4777 4.72768 61.5405C4.35688 60.791 3.98969 60.0053 3.62897 59.165C2.44249 56.4012 -0.322394 49.326 0.25479 41.7738ZM43.2041 86.917C43.0222 86.9226 42.976 85.7643 43.1495 85.5238C43.4117 85.1603 43.8046 85.4596 44.0811 85.4424C45.229 85.3706 46.3767 85.2642 47.5241 85.1201C50.67 84.725 53.8138 84.0505 56.9504 83.0118C64.7303 80.4354 73.0945 76.5076 80.4284 64.4402C80.8952 63.6722 81.3579 62.8574 81.8144 61.9815C83.2017 59.3199 86.6786 52.2546 86.2767 43.4715C86.2428 42.7311 86.4683 42.2876 86.5691 42.9228C86.6976 43.7315 86.6454 45.4175 86.6101 46.3147C86.4968 49.1879 86.0555 51.6177 85.5902 53.58C84.1158 59.7989 82.0458 63.4047 80.1501 66.4154C73.9884 76.2013 67.2962 80.1463 60.7898 82.9812C54.9542 85.5238 49.0742 86.7358 43.2041 86.917Z" fill="#401C02"/>
</g>
<g filter="url(#filter1_f_171_9441)">
<path d="M0.25479 41.7738C0.301482 41.1628 0.502542 41.1016 0.561185 41.722C0.626339 42.4113 0.499687 43.7969 0.530179 44.6328C0.610917 46.846 0.950178 48.7703 1.29992 50.3356C2.42697 55.3797 3.98775 58.63 5.44352 61.3839C10.2287 70.436 15.4705 75.0198 20.5841 78.4744C28.0797 83.5383 35.6362 85.1491 43.1988 85.4907C43.3896 85.4994 43.4213 86.7419 43.2337 86.9037C42.8953 87.1954 42.4761 86.9059 42.1298 86.8937C41.135 86.8589 40.1402 86.7906 39.1455 86.6872C36.196 86.3807 33.2467 85.7565 30.3033 84.7523C22.3004 82.0219 13.6715 77.3466 6.13571 64.1783C5.66164 63.3499 5.19133 62.4777 4.72768 61.5405C4.35688 60.791 3.98969 60.0053 3.62897 59.165C2.44249 56.4012 -0.322394 49.326 0.25479 41.7738ZM43.2041 86.917C43.0222 86.9226 42.976 85.7643 43.1495 85.5238C43.4117 85.1603 43.8046 85.4596 44.0811 85.4424C45.229 85.3706 46.3767 85.2642 47.5241 85.1201C50.67 84.725 53.8138 84.0505 56.9504 83.0118C64.7303 80.4354 73.0945 76.5076 80.4284 64.4402C80.8952 63.6722 81.3579 62.8574 81.8144 61.9815C83.2017 59.3199 86.6786 52.2546 86.2767 43.4715C86.2428 42.7311 86.4683 42.2876 86.5691 42.9228C86.6976 43.7315 86.6454 45.4175 86.6101 46.3147C86.4968 49.1879 86.0555 51.6177 85.5902 53.58C84.1158 59.7989 82.0458 63.4047 80.1501 66.4154C73.9884 76.2013 67.2962 80.1463 60.7898 82.9812C54.9542 85.5238 49.0742 86.7358 43.2041 86.917Z" fill="#401C02"/>
</g>
</g>
<path d="M31.3389 42.0133C34.1915 42.0133 36.504 39.0175 36.504 35.3221C36.504 31.6266 34.1915 28.6309 31.3389 28.6309C28.4863 28.6309 26.1738 31.6266 26.1738 35.3221C26.1738 39.0175 28.4863 42.0133 31.3389 42.0133Z" fill="url(#paint4_radial_171_9441)"/>
<path d="M31.3389 42.0133C34.1915 42.0133 36.504 39.0175 36.504 35.3221C36.504 31.6266 34.1915 28.6309 31.3389 28.6309C28.4863 28.6309 26.1738 31.6266 26.1738 35.3221C26.1738 39.0175 28.4863 42.0133 31.3389 42.0133Z" stroke="url(#paint5_linear_171_9441)" stroke-width="0.35658" stroke-miterlimit="10"/>
<path d="M55.8289 42.0133C58.6815 42.0133 60.9939 39.0175 60.9939 35.3221C60.9939 31.6266 58.6815 28.6309 55.8289 28.6309C52.9763 28.6309 50.6638 31.6266 50.6638 35.3221C50.6638 39.0175 52.9763 42.0133 55.8289 42.0133Z" fill="url(#paint6_radial_171_9441)"/>
<path d="M55.8289 42.0133C58.6815 42.0133 60.9939 39.0175 60.9939 35.3221C60.9939 31.6266 58.6815 28.6309 55.8289 28.6309C52.9763 28.6309 50.6638 31.6266 50.6638 35.3221C50.6638 39.0175 52.9763 42.0133 55.8289 42.0133Z" stroke="url(#paint7_linear_171_9441)" stroke-width="0.35658" stroke-miterlimit="10"/>
<path d="M71.8964 54.5469C69.3058 59.8729 65.2696 64.3629 60.2486 67.5041C55.2277 70.6453 49.4245 72.311 43.5019 72.311C37.5793 72.311 31.7761 70.6453 26.7552 67.5041C21.7342 64.3629 17.698 59.8729 15.1074 54.5469C23.389 57.4387 33.1147 59.104 43.5019 59.104C53.8891 59.104 63.6148 57.4387 71.8964 54.5469Z" fill="url(#paint8_radial_171_9441)"/>
<path d="M74.5814 46.2773C74.5493 46.4556 74.5155 46.6339 74.4798 46.8211C74.4441 47.0083 74.4156 47.1492 74.38 47.3114C74.38 47.3435 74.3675 47.3738 74.3604 47.4041C74.3265 47.5699 74.289 47.734 74.2516 47.898C74.2142 48.062 74.1803 48.1957 74.1428 48.3437C74.1214 48.4329 74.1 48.522 74.0751 48.6112C74.0662 48.6504 74.0555 48.6914 74.0448 48.7306C74.0216 48.8233 73.9966 48.9089 73.9717 49.007C73.9717 49.0426 73.9538 49.0783 73.9432 49.1139C73.9087 49.2399 73.873 49.3665 73.8362 49.4937C73.788 49.672 73.7363 49.836 73.6846 50.0072V50.0179C73.6347 50.1783 73.5848 50.3406 73.5313 50.501C73.4154 50.8576 73.2942 51.2142 73.1747 51.5708C73.1123 51.7491 73.0481 51.9113 72.984 52.0789C72.9198 52.2465 72.8734 52.3642 72.8164 52.5068C72.7308 52.7207 72.6381 52.9329 72.5525 53.1433C72.4937 53.2824 72.433 53.4214 72.3742 53.5587L72.3653 53.5765C72.3065 53.7103 72.2458 53.8422 72.187 53.9741L72.0907 54.1809C72.0319 54.3057 71.973 54.4305 71.9124 54.5536C63.6309 57.4454 53.9051 59.1107 43.518 59.1107C33.1308 59.1107 23.405 57.4454 15.1235 54.5536C15.0629 54.4305 15.004 54.3057 14.9452 54.1809L14.8489 53.9741C14.7883 53.8422 14.7277 53.7103 14.6706 53.5765L14.6617 53.5587C14.6011 53.4214 14.5405 53.2824 14.4834 53.1433C14.3925 52.9329 14.3051 52.7207 14.2195 52.5068C14.1625 52.3642 14.1072 52.2215 14.052 52.0789C13.9967 51.9363 13.9236 51.7419 13.8612 51.5708C13.7328 51.2142 13.6116 50.8665 13.4957 50.501C13.4422 50.3406 13.3923 50.1783 13.3424 50.0179V50.0072C13.2907 49.8289 13.2389 49.6649 13.1908 49.4937C13.1528 49.3677 13.1171 49.2411 13.0838 49.1139C13.0731 49.0783 13.0642 49.0426 13.0553 49.007C13.0304 48.916 13.0054 48.8287 12.9822 48.7306C12.9715 48.6914 12.9608 48.6504 12.9519 48.6112C12.9269 48.522 12.9055 48.4329 12.8841 48.3437C12.8467 48.1957 12.8111 48.046 12.7754 47.898C12.7397 47.75 12.7005 47.5699 12.6666 47.4041C12.6666 47.3738 12.6524 47.3435 12.647 47.3114C12.6114 47.1492 12.5793 46.9852 12.5472 46.8211C12.5151 46.6571 12.4776 46.4645 12.4456 46.2773C21.278 49.7807 31.9862 51.8329 43.5251 51.8329C55.064 51.8329 65.7489 49.7807 74.5814 46.2773Z" fill="url(#paint9_linear_171_9441)"/>
<path d="M71.8964 54.5469C63.6148 57.4387 53.8891 59.104 43.5019 59.104C33.1147 59.104 23.389 57.4387 15.1074 54.5469" stroke="url(#paint10_radial_171_9441)" stroke-width="1.06974" stroke-miterlimit="10"/>
<mask id="mask1_171_9441" style="mask-type:alpha" maskUnits="userSpaceOnUse" x="12" y="46" width="63" height="27">
<path d="M73.5938 46.4817C73.6922 46.4443 73.7988 46.434 73.9026 46.452C74.0063 46.47 74.1033 46.5155 74.1833 46.5839C74.2634 46.6523 74.3236 46.741 74.3576 46.8406C74.3915 46.9403 74.3981 47.0472 74.3765 47.1503C72.8677 54.2195 68.9788 60.5569 63.3593 65.1035C57.7399 69.6502 50.7304 72.1308 43.502 72.1308C36.2735 72.1308 29.264 69.6502 23.6446 65.1035C18.0252 60.5569 14.1362 54.2195 12.6275 47.1503C12.6059 47.0472 12.6124 46.9403 12.6464 46.8406C12.6804 46.741 12.7405 46.6523 12.8206 46.5839C12.9006 46.5155 12.9976 46.47 13.1014 46.452C13.2051 46.434 13.3118 46.4443 13.4102 46.4817C22.0483 49.7515 32.3891 51.6521 43.502 51.6521C54.6148 51.6521 64.9556 49.7515 73.5938 46.4817Z" fill="url(#paint11_linear_171_9441)"/>
</mask>
<g mask="url(#mask1_171_9441)">
<g filter="url(#filter2_f_171_9441)">
<path d="M73.5938 46.4817C73.6922 46.4443 73.7988 46.434 73.9026 46.452C74.0063 46.47 74.1033 46.5155 74.1833 46.5839C74.2634 46.6523 74.3236 46.741 74.3576 46.8406C74.3915 46.9403 74.3981 47.0472 74.3765 47.1503C72.8677 54.2195 68.9788 60.5569 63.3593 65.1035C57.7399 69.6502 50.7304 72.1308 43.502 72.1308C36.2735 72.1308 29.264 69.6502 23.6446 65.1035C18.0252 60.5569 14.1362 54.2195 12.6275 47.1503C12.6059 47.0472 12.6124 46.9403 12.6464 46.8406C12.6804 46.741 12.7405 46.6523 12.8206 46.5839C12.9006 46.5155 12.9976 46.47 13.1014 46.452C13.2051 46.434 13.3118 46.4443 13.4102 46.4817C22.0483 49.7515 32.3891 51.6521 43.502 51.6521C54.6148 51.6521 64.9556 49.7515 73.5938 46.4817Z" stroke="url(#paint12_linear_171_9441)" stroke-width="2.13948" stroke-miterlimit="10"/>
</g>
</g>
<mask id="path-17-outside-1_171_9441" maskUnits="userSpaceOnUse" x="10.6147" y="44.623" width="66" height="30" fill="black">
<rect fill="white" x="10.6147" y="44.623" width="66" height="30"/>
<path d="M73.5935 46.6614C73.6919 46.6239 73.7986 46.6137 73.9023 46.6317C74.0061 46.6497 74.1031 46.6952 74.1831 46.7636C74.2632 46.832 74.3233 46.9207 74.3573 47.0203C74.3913 47.12 74.3978 47.2269 74.3762 47.33C72.8675 54.3992 68.9785 60.7366 63.3591 65.2832C57.7397 69.8299 50.7301 72.3105 43.5017 72.3105C36.2733 72.3105 29.2638 69.8299 23.6444 65.2832C18.0249 60.7366 14.136 54.3992 12.6272 47.33C12.6056 47.2269 12.6122 47.12 12.6461 47.0203C12.6801 46.9207 12.7403 46.832 12.8203 46.7636C12.9004 46.6952 12.9974 46.6497 13.1011 46.6317C13.2049 46.6137 13.3115 46.6239 13.4099 46.6614C22.0481 49.9312 32.3889 51.8318 43.5017 51.8318C54.6145 51.8318 64.9554 49.9312 73.5935 46.6614Z"/>
</mask>
<path d="M73.5935 46.6614L74.1932 48.2455L74.1959 48.2444L73.5935 46.6614ZM74.3762 47.33L76.0327 47.6835L76.0339 47.6775L74.3762 47.33ZM12.6272 47.33L10.9695 47.6775L10.9708 47.6835L12.6272 47.33ZM13.4099 46.6614L12.8076 48.2444L12.8103 48.2455L13.4099 46.6614ZM74.1959 48.2444C74.0101 48.3151 73.8088 48.3345 73.613 48.3005L74.1917 44.9628C73.7884 44.8929 73.3738 44.9328 72.9912 45.0784L74.1959 48.2444ZM73.613 48.3005C73.4172 48.2666 73.2341 48.1806 73.083 48.0515L75.2832 45.4758C74.972 45.2099 74.5949 45.0327 74.1917 44.9628L73.613 48.3005ZM73.083 48.0515C72.9319 47.9224 72.8183 47.7551 72.7542 47.5669L75.9604 46.4737C75.8283 46.0863 75.5944 45.7416 75.2832 45.4758L73.083 48.0515ZM72.7542 47.5669C72.69 47.3788 72.6777 47.1769 72.7185 46.9824L76.0339 47.6775C76.1179 47.2769 76.0925 46.8611 75.9604 46.4737L72.7542 47.5669ZM72.7198 46.9765C71.292 53.6664 67.6117 59.6638 62.2937 63.9665L64.4245 66.6C70.3454 61.8094 74.443 55.132 76.0327 47.6835L72.7198 46.9765ZM62.2937 63.9665C56.9758 68.2692 50.3423 70.6167 43.5017 70.6167V74.0042C51.118 74.0042 58.5035 71.3906 64.4245 66.6L62.2937 63.9665ZM43.5017 70.6167C36.6611 70.6167 30.0277 68.2692 24.7097 63.9665L22.579 66.6C28.4999 71.3906 35.8855 74.0042 43.5017 74.0042V70.6167ZM24.7097 63.9665C19.3918 59.6638 15.7115 53.6664 14.2837 46.9765L10.9708 47.6835C12.5605 55.132 16.6581 61.8094 22.579 66.6L24.7097 63.9665ZM14.2849 46.9824C14.3257 47.177 14.3134 47.3789 14.2493 47.5669L11.043 46.4737C10.9109 46.8611 10.8855 47.2769 10.9695 47.6775L14.2849 46.9824ZM14.2493 47.5669C14.1851 47.755 14.0716 47.9224 13.9204 48.0515L11.7202 45.4758C11.409 45.7416 11.1751 46.0863 11.043 46.4737L14.2493 47.5669ZM13.9204 48.0515C13.7693 48.1806 13.5863 48.2666 13.3905 48.3005L12.8118 44.9628C12.4085 45.0327 12.0315 45.2099 11.7202 45.4758L13.9204 48.0515ZM13.3905 48.3005C13.1947 48.3345 12.9934 48.3151 12.8076 48.2444L14.0123 45.0784C13.6297 44.9328 13.215 44.8929 12.8118 44.9628L13.3905 48.3005ZM12.8103 48.2455C21.6564 51.594 32.2023 53.5256 43.5017 53.5256V50.1381C32.5755 50.1381 22.4397 48.2684 14.0095 45.0773L12.8103 48.2455ZM43.5017 53.5256C54.8011 53.5256 65.347 51.594 74.1932 48.2455L72.9939 45.0773C64.5637 48.2684 54.428 50.1381 43.5017 50.1381V53.5256Z" fill="url(#paint13_linear_171_9441)" mask="url(#path-17-outside-1_171_9441)"/>
<path d="M73.5935 46.6614C73.6919 46.6239 73.7986 46.6137 73.9023 46.6317C74.0061 46.6497 74.103 46.6952 74.1831 46.7636C74.2632 46.832 74.3233 46.9207 74.3573 47.0203C74.3913 47.12 74.3978 47.2269 74.3762 47.33C72.8675 54.3992 68.9785 60.7366 63.3591 65.2832C57.7397 69.8299 50.7301 72.3105 43.5017 72.3105C36.2733 72.3105 29.2638 69.8299 23.6444 65.2832C18.0249 60.7366 14.136 54.3992 12.6272 47.33C12.6056 47.2269 12.6122 47.12 12.6461 47.0203C12.6801 46.9207 12.7403 46.832 12.8203 46.7636C12.9004 46.6952 12.9974 46.6497 13.1011 46.6317C13.2049 46.6137 13.3115 46.6239 13.4099 46.6614C22.0481 49.9312 32.3889 51.8318 43.5017 51.8318C54.6145 51.8318 64.9554 49.9312 73.5935 46.6614Z" stroke="url(#paint14_linear_171_9441)" stroke-width="2.13948" stroke-miterlimit="10"/>
<defs>
<filter id="filter0_f_171_9441" x="-4.28074" y="36.8279" width="95.3891" height="54.6626" filterUnits="userSpaceOnUse" color-interpolation-filters="sRGB">
<feFlood flood-opacity="0" result="BackgroundImageFix"/>
<feBlend mode="normal" in="SourceGraphic" in2="BackgroundImageFix" result="shape"/>
<feGaussianBlur stdDeviation="2.22863" result="effect1_foregroundBlur_171_9441"/>
</filter>
<filter id="filter1_f_171_9441" x="-6.95509" y="34.1536" width="100.738" height="60.0113" filterUnits="userSpaceOnUse" color-interpolation-filters="sRGB">
<feFlood flood-opacity="0" result="BackgroundImageFix"/>
<feBlend mode="normal" in="SourceGraphic" in2="BackgroundImageFix" result="shape"/>
<feGaussianBlur stdDeviation="3.5658" result="effect1_foregroundBlur_171_9441"/>
</filter>
<filter id="filter2_f_171_9441" x="9.76227" y="43.5901" width="67.4794" height="31.3939" filterUnits="userSpaceOnUse" color-interpolation-filters="sRGB">
<feFlood flood-opacity="0" result="BackgroundImageFix"/>
<feBlend mode="normal" in="SourceGraphic" in2="BackgroundImageFix" result="shape"/>
<feGaussianBlur stdDeviation="0.89145" result="effect1_foregroundBlur_171_9441"/>
</filter>
<radialGradient id="paint0_radial_171_9441" cx="0" cy="0" r="1" gradientUnits="userSpaceOnUse" gradientTransform="translate(43.4679) rotate(90) scale(85.9358)">
<stop stop-color="#FFDE43"/>
<stop offset="1" stop-color="#FFBC00"/>
</radialGradient>
<radialGradient id="paint1_radial_171_9441" cx="0" cy="0" r="1" gradientUnits="userSpaceOnUse" gradientTransform="translate(43.4679 11.4997) rotate(90) scale(74.4361)">
<stop stop-color="white" stop-opacity="0.5"/>
<stop offset="0.782278"/>
</radialGradient>
<radialGradient id="paint2_radial_171_9441" cx="0" cy="0" r="1" gradientUnits="userSpaceOnUse" gradientTransform="translate(43.4679 11.4997) rotate(90) scale(74.4361)">
<stop stop-color="white" stop-opacity="0.5"/>
<stop offset="0.782278"/>
</radialGradient>
<radialGradient id="paint3_radial_171_9441" cx="0" cy="0" r="1" gradientUnits="userSpaceOnUse" gradientTransform="translate(43.4679 -9.36023) rotate(90) scale(95.296 128.874)">
<stop offset="0.0922635" stop-color="white"/>
<stop offset="0.670207" stop-color="white" stop-opacity="0"/>
</radialGradient>
<radialGradient id="paint4_radial_171_9441" cx="0" cy="0" r="1" gradientUnits="userSpaceOnUse" gradientTransform="translate(31.3317 35.3176) scale(6.5842 6.70283)">
<stop stop-color="#743C1C"/>
<stop offset="1" stop-color="#401C02"/>
</radialGradient>
<linearGradient id="paint5_linear_171_9441" x1="31.3389" y1="42.3899" x2="31.3389" y2="28.2002" gradientUnits="userSpaceOnUse">
<stop stop-color="#FFDE43"/>
<stop offset="0.22" stop-color="#FED93F"/>
<stop offset="0.51" stop-color="#FCC934"/>
<stop offset="0.82" stop-color="#F9AF21"/>
<stop offset="1" stop-color="#F79D14"/>
</linearGradient>
<radialGradient id="paint6_radial_171_9441" cx="0" cy="0" r="1" gradientUnits="userSpaceOnUse" gradientTransform="translate(55.8217 35.3176) scale(6.5842 6.70283)">
<stop stop-color="#743C1C"/>
<stop offset="1" stop-color="#401C02"/>
</radialGradient>
<linearGradient id="paint7_linear_171_9441" x1="55.8289" y1="42.3899" x2="55.8289" y2="28.2002" gradientUnits="userSpaceOnUse">
<stop stop-color="#FFDE43"/>
<stop offset="0.22" stop-color="#FED93F"/>
<stop offset="0.51" stop-color="#FCC934"/>
<stop offset="0.82" stop-color="#F9AF21"/>
<stop offset="1" stop-color="#F79D14"/>
</linearGradient>
<radialGradient id="paint8_radial_171_9441" cx="0" cy="0" r="1" gradientUnits="userSpaceOnUse" gradientTransform="translate(43.5019 63.393) scale(21.4328 17.9427)">
<stop stop-color="#743C1C"/>
<stop offset="1" stop-color="#401C02"/>
</radialGradient>
<linearGradient id="paint9_linear_171_9441" x1="12.4217" y1="52.6964" x2="74.5814" y2="52.6964" gradientUnits="userSpaceOnUse">
<stop stop-color="#CCCCCC"/>
<stop offset="0.05" stop-color="#D5D5D5"/>
<stop offset="0.2" stop-color="#E9E9E9"/>
<stop offset="0.35" stop-color="#F6F6F6"/>
<stop offset="0.5" stop-color="#FAFAFA"/>
<stop offset="0.65" stop-color="#F6F6F6"/>
<stop offset="0.8" stop-color="#E9E9E9"/>
<stop offset="0.95" stop-color="#D5D5D5"/>
<stop offset="1" stop-color="#CCCCCC"/>
</linearGradient>
<radialGradient id="paint10_radial_171_9441" cx="0" cy="0" r="1" gradientUnits="userSpaceOnUse" gradientTransform="translate(43.5019 56.8397) scale(20.3001 20.3001)">
<stop stop-color="#401C02"/>
<stop offset="1" stop-color="#401C02"/>
</radialGradient>
<linearGradient id="paint11_linear_171_9441" x1="31041.3" y1="16516.5" x2="31041.3" y2="12506.9" gradientUnits="userSpaceOnUse">
<stop stop-color="#401C02"/>
<stop offset="1" stop-color="#401C02"/>
</linearGradient>
<linearGradient id="paint12_linear_171_9441" x1="31041.3" y1="16516.5" x2="31041.3" y2="12506.9" gradientUnits="userSpaceOnUse">
<stop stop-color="#401C02"/>
<stop offset="1" stop-color="#401C02"/>
</linearGradient>
<linearGradient id="paint13_linear_171_9441" x1="43.5017" y1="73.0332" x2="43.5017" y2="45.7965" gradientUnits="userSpaceOnUse">
<stop offset="0.265625" stop-color="#FFDE43"/>
<stop offset="1" stop-color="#F79D14"/>
</linearGradient>
<linearGradient id="paint14_linear_171_9441" x1="31041.3" y1="16516.6" x2="31041.3" y2="12507.1" gradientUnits="userSpaceOnUse">
<stop stop-color="#401C02"/>
<stop offset="1" stop-color="#401C02"/>
</linearGradient>
</defs>
</svg>
