<?xml version="1.0" encoding="UTF-8" standalone="no"?>
<svg width="16px" height="16px" viewBox="0 0 16 16" version="1.1" xmlns="http://www.w3.org/2000/svg" xmlns:xlink="http://www.w3.org/1999/xlink">
    <!-- Generator: Sketch 48.2 (47327) - http://www.bohemiancoding.com/sketch -->
    <title>cross</title>
    <desc>Created with Sketch.</desc>
    <defs></defs>
    <g id="Карточки,-предпросмотр-(скролл)" stroke="none" stroke-width="1" fill="none" fill-rule="evenodd" transform="translate(-1107.000000, -129.000000)">
        <g id="Group" transform="translate(1096.000000, 119.000000)" fill="#000000">
            <g id="Group-2" transform="translate(19.000000, 18.000000) rotate(135.000000) translate(-19.000000, -18.000000) translate(9.000000, 8.000000)">
                <path d="M11,9 L19,9 C19.5522847,9 20,9.44771525 20,10 C20,10.5522847 19.5522847,11 19,11 L11,11 L11,19 C11,19.5522847 10.5522847,20 10,20 C9.44771525,20 9,19.5522847 9,19 L9,11 L1,11 C0.44771525,11 2.41652166e-13,10.5522847 2.4158453e-13,10 C2.41516895e-13,9.44771525 0.44771525,9 1,9 L9,9 L9,1 C9,0.44771525 9.44771525,1.01453063e-16 10,0 C10.5522847,-1.01453063e-16 11,0.44771525 11,1 L11,9 Z" id="cross"></path>
            </g>
        </g>
    </g>
</svg>
