<svg width="48" height="46" viewBox="0 0 48 46" fill="none" xmlns="http://www.w3.org/2000/svg">
<path d="M47.8748 17.3668C47.5606 16.3957 46.6985 15.706 45.6786 15.6142L31.8245 14.3574L26.3462 1.5466C25.9423 0.607736 25.0223 0 24.0002 0C22.9781 0 22.0581 0.607736 21.6542 1.54879L16.1759 14.3574L2.31963 15.6142C1.30154 15.7082 0.441655 16.3957 0.125607 17.3668C-0.19044 18.3378 0.101437 19.4029 0.871596 20.0743L11.3436 29.25L8.25568 42.8401C8.02972 43.8393 8.41792 44.8722 9.24777 45.4715C9.69382 45.7935 10.2157 45.9574 10.7419 45.9574C11.1957 45.9574 11.6458 45.8352 12.0497 45.5938L24.0002 38.4579L35.9463 45.5938C36.8204 46.1192 37.9224 46.0712 38.7504 45.4715C39.5806 44.8704 39.9685 43.8371 39.7425 42.8401L36.6545 29.25L47.1266 20.0762C47.8968 19.4029 48.1908 18.3397 47.8748 17.3668Z" fill="#FFC107"/>
</svg>
